<?xml version="1.0" encoding="UTF-8"?>
<svg width="1366px" height="732px" viewBox="0 0 1366 732" version="1.1" xmlns="http://www.w3.org/2000/svg" xmlns:xlink="http://www.w3.org/1999/xlink">
    <!-- Generator: sketchtool 63.1 (101010) - https://sketch.com -->
    <title>C9DD4DF4-D822-412F-A670-886BB6D5CBDB</title>
    <desc>Created with sketchtool.</desc>
    <g id="Page-1" stroke="none" stroke-width="1" fill="none" fill-rule="evenodd">
        <g id="Homepage-desktop">
            <g id="BG_1">
                <path d="M1145.81069,110.528135 C1047.72832,75.4760704 947.519659,91.3205238 892.149743,182.828759 C836.779826,274.336995 862.50776,447.944409 664.5,471.222205 C466.49224,494.5 441.590977,542 399.457021,622.798455 C332.610772,750.986601 199.458432,765.720449 0,667 L0,0 L1366,0 L1366,120.096082 C1290.79664,139.301663 1217.4002,136.112347 1145.81069,110.528135 Z" id="Path-2" fill="#000000"></path>
                <path d="M966.428512,507.36975 C1038.50126,421.948055 973.901807,353.465267 1048.18416,312.478841 C1122.46652,271.492415 1236.84716,367.268715 1196.68021,525.560011 C1156.51326,683.851307 846.453249,649.566229 966.428512,507.36975 Z" id="Path-3" fill="#FF8787"></path>
                <path d="M119,1.42108547e-14 L870.557252,1.42108547e-14 C830.357542,7.15326404 797.92949,28.9374793 773.273095,65.3526457 C736.288504,119.975395 617.466986,281.456867 269.557252,96.4601425 C190.620912,54.4867142 140.435161,22.3333333 119,1.42108547e-14 Z" id="Path" fill="#0B24FB"></path>
                <circle id="Oval" fill="#0B24FB" cx="496" cy="339" r="66"></circle>
            </g>
        </g>
    </g>
</svg>